# xmcd
#
# Track frame offsets:
#	150
#	11227
#	30370
#	55830
#	69237
#	81917
#	99932
#	116135
#	135942
#	150105
#	167245
#	184717
#	209625
#	225075
#	239957
#	257332
#	272000
#	284990
#
# Disc length: 3999
#
# Revision: 7
# Processed by: cddbd v1.5.1PL0 Copyright (c) Steve Scherf et al.
# Submitted via: ExactAudioCopy v0.95a5
# Normalized: r6:TDELIM( - )
#
DISCID=f10f9d12
DTITLE=After Hours - 18 of the best piano standards
DYEAR=1997
DGENRE=Jazz
TTITLE0=Bud Powell - Tempus Fugue-It
TTITLE1=Lester Young - Six Cats and a Prince
TTITLE2=Oscar Peterson - I've Never Been In Love Before - live
TTITLE3=Bill Evans - Bemsha Swing
TTITLE4=Charlie Parker and his orchestra and Dizzy Gillespie - Relaxing With Lee
TTITLE5=Erroll Garner - Is you or is you ain't my baby
TTITLE6=Quincy Jones - After Hours
TTITLE7=Ray Bryant - Swingin' The Blues
TTITLE8=The Keynoters with Nat "King" Cole - The Way You Look Tonight
TTITLE9=Teddy Wilson - Stompin' At The Savoy
TTITLE10=Cozy Cole All Stars - Father Co-Operates
TTITLE11=Art Tatum - Love For Sale
TTITLE12=Dizzy Gillespie - Carioca
TTITLE13=Art Blakey and The Jazz Messengers, Chuck Mangione - Buttercorn Lady
TTITLE14=Tommy Flanagan - Oh, Lady, Be Good
TTITLE15=George Shearing - September In The Rain
TTITLE16=Lennie Tristano - Blue Boy
TTITLE17=Hank Jones - Believe It, Beloved
EXTD=YEAR: 1997
EXTT0=
EXTT1=
EXTT2=
EXTT3=
EXTT4=
EXTT5=
EXTT6=
EXTT7=
EXTT8=
EXTT9=
EXTT10=
EXTT11=
EXTT12=
EXTT13=
EXTT14=
EXTT15=
EXTT16=
EXTT17=
PLAYORDER=
